<svg width="1712" height="708" viewBox="0 0 1712 708" fill="none" xmlns="http://www.w3.org/2000/svg">
<g filter="url(#filter0_f_727_11)">
<path d="M83.1299 312.75L89.1299 319.5C54.6299 369 38.8799 416.25 38.8799 457.5C38.8799 546.75 112.38 612.75 233.88 612.75C352.38 612.75 413.13 549.75 413.13 489C413.13 443.25 372.63 410.25 320.13 381L307.38 435H298.38L311.88 376.5C281.88 359.25 249.63 345.75 217.38 328.5C136.38 285 69.6299 236.25 69.6299 159C69.6299 96 114.63 30.75 223.38 30.75C287.88 30.75 337.38 55.5 373.38 93L386.13 37.5H398.13L333.63 318.75C388.38 354 424.38 392.25 424.38 465C424.38 570 359.13 678 228.63 678C112.38 678 19.3799 592.5 19.3799 479.25C19.3799 428.25 38.8799 371.25 83.1299 312.75ZM325.38 312.75L367.38 120.75C356.13 102 319.38 39.75 223.38 39.75C146.13 39.75 122.88 91.5 122.88 135C122.88 198.75 174.63 228 241.38 265.5C268.38 282 297.63 294.75 325.38 312.75Z" fill="url(#paint0_linear_727_11)" fill-opacity="0.6"/>
<path d="M445.509 585V576H520.509V51.75H446.259V42.75H657.759V51.75H582.759V576H597.759C636.759 576 692.259 572.25 722.259 558.75L770.259 261.75H780.009L732.759 585H445.509Z" fill="url(#paint1_linear_727_11)" fill-opacity="0.6"/>
<path d="M1075.85 585V576H1162.85L1090.1 375C1069.85 497.25 912.349 578.25 780.349 591.75C796.849 522 837.349 464.25 883.849 415.5C865.849 396 857.599 371.25 857.599 348.75C858.349 304.5 888.349 267.75 931.849 255.75L1012.1 42.75H1030.1L1228.1 576H1286.6V585H1075.85ZM1078.85 365.25C1078.85 327.75 1063.85 293.25 1030.1 276C1018.85 292.5 1001.6 310.5 982.849 330.75C917.599 399 859.099 465 859.099 565.5C960.349 542.25 1078.85 463.5 1078.85 365.25ZM890.599 408.75C909.349 387 931.849 366 952.099 347.25C980.599 318.75 1006.1 294 1021.85 271.5C1005.35 264 988.099 260.25 969.349 260.25C912.349 260.25 867.349 297.75 867.349 348.75C867.349 366.75 874.099 390.75 890.599 408.75ZM1057.1 283.5L997.849 110.25L943.849 252.75C952.099 251.25 961.099 250.5 968.599 250.5C1003.85 250.5 1035.35 262.5 1057.1 283.5Z" fill="url(#paint2_linear_727_11)" fill-opacity="0.6"/>
<path d="M1315.69 259.5L1217.44 51.75H1157.44V42.75H1365.19V51.75H1284.94L1437.19 375C1456.69 292.5 1476.94 226.5 1497.19 174.75C1536.19 75 1574.44 30 1611.94 30C1667.44 30 1681.69 83.25 1681.69 157.5C1681.69 342 1563.19 657.75 1353.94 657.75C1273.69 657.75 1205.44 592.5 1205.44 494.25C1205.44 427.5 1236.94 346.5 1315.69 259.5ZM1416.94 471L1320.19 268.5C1243.69 351.75 1214.44 429.75 1214.44 493.5C1214.44 586.5 1278.94 648.75 1353.94 648.75C1545.94 648.75 1619.44 363.75 1619.44 189.75C1619.44 117 1601.44 58.5 1582.69 58.5C1544.44 58.5 1458.19 285.75 1425.94 471H1416.94Z" fill="url(#paint3_linear_727_11)" fill-opacity="0.6"/>
</g>
<defs>
<filter id="filter0_f_727_11" x="-10.6201" y="0" width="1722.31" height="708" filterUnits="userSpaceOnUse" color-interpolation-filters="sRGB">
<feFlood flood-opacity="0" result="BackgroundImageFix"/>
<feBlend mode="normal" in="SourceGraphic" in2="BackgroundImageFix" result="shape"/>
<feGaussianBlur stdDeviation="15" result="effect1_foregroundBlur_727_11"/>
</filter>
<linearGradient id="paint0_linear_727_11" x1="850.535" y1="30" x2="850.535" y2="678" gradientUnits="userSpaceOnUse">
<stop offset="0.134615" stop-color="#CF185B"/>
<stop offset="1" stop-color="#FF89C7"/>
</linearGradient>
<linearGradient id="paint1_linear_727_11" x1="850.535" y1="30" x2="850.535" y2="678" gradientUnits="userSpaceOnUse">
<stop offset="0.134615" stop-color="#CF185B"/>
<stop offset="1" stop-color="#FF89C7"/>
</linearGradient>
<linearGradient id="paint2_linear_727_11" x1="850.535" y1="30" x2="850.535" y2="678" gradientUnits="userSpaceOnUse">
<stop offset="0.134615" stop-color="#CF185B"/>
<stop offset="1" stop-color="#FF89C7"/>
</linearGradient>
<linearGradient id="paint3_linear_727_11" x1="850.535" y1="30" x2="850.535" y2="678" gradientUnits="userSpaceOnUse">
<stop offset="0.134615" stop-color="#CF185B"/>
<stop offset="1" stop-color="#FF89C7"/>
</linearGradient>
</defs>
</svg>
